<?xml version="1.0" standalone="no"?><!-- Generator: Gravit.io --><svg xmlns="http://www.w3.org/2000/svg" xmlns:xlink="http://www.w3.org/1999/xlink" style="isolation:isolate" viewBox="0 0 500 500" width="500" height="500"><defs><clipPath id="_clipPath_Abi0Dmsj2UnyyrmXOaQLANPZCjjtLw82"><rect width="500" height="500"/></clipPath></defs><g clip-path="url(#_clipPath_Abi0Dmsj2UnyyrmXOaQLANPZCjjtLw82)"><clipPath id="_clipPath_6ppUBNCCfQrb4mtAeRcKlc01lKqQEoqG"><rect x="0" y="0" width="500" height="500" transform="matrix(1,0,0,1,0,0)" fill="rgb(255,255,255)"/></clipPath><g clip-path="url(#_clipPath_6ppUBNCCfQrb4mtAeRcKlc01lKqQEoqG)"><g><rect x="0" y="0" width="500" height="500" transform="matrix(1,0,0,1,0,0)" fill="none"/><path d=" M 392 136 L 312 55.562 L 312 136 L 392 136 L 392 136 L 392 136 L 392 136 L 392 136 L 392 136 Z  M 371.98 377 C 373.31 376.99 374.58 377.52 375.52 378.45 C 376.46 379.38 376.99 380.65 377 381.98 C 377.01 383.31 376.48 384.58 375.55 385.52 C 374.62 386.46 373.35 386.99 372.02 387 L 128.02 388 C 126.69 388.01 125.42 387.48 124.48 386.55 C 123.54 385.62 123.01 384.35 123 383.02 C 122.99 381.69 123.52 380.42 124.45 379.48 C 125.38 378.54 126.65 378.01 127.98 378 L 371.98 377 L 371.98 377 L 371.98 377 L 371.98 377 L 371.98 377 Z  M 371.98 340 C 373.31 339.99 374.58 340.52 375.52 341.45 C 376.46 342.38 376.99 343.65 377 344.98 C 377.01 346.31 376.48 347.58 375.55 348.52 C 374.62 349.46 373.35 349.99 372.02 350 L 128.02 351 C 126.69 351.01 125.42 350.48 124.48 349.55 C 123.54 348.62 123.01 347.35 123 346.02 C 122.99 344.69 123.52 343.42 124.45 342.48 C 125.38 341.54 126.65 341.01 127.98 341 L 371.98 340 L 371.98 340 L 371.98 340 L 371.98 340 Z  M 371.98 301 C 373.31 300.99 374.58 301.52 375.52 302.45 C 376.46 303.38 376.99 304.65 377 305.98 C 377.01 307.31 376.48 308.58 375.55 309.52 C 374.62 310.46 373.35 310.99 372.02 311 L 128.02 312 C 126.69 312.01 125.42 311.48 124.48 310.55 C 123.54 309.62 123.01 308.35 123 307.02 C 122.99 305.69 123.52 304.42 124.45 303.48 C 125.38 302.54 126.65 302.01 127.98 302 L 371.98 301 L 371.98 301 L 371.98 301 Z  M 154.215 83.35 L 154.215 83.35 L 147.755 87.178 L 147.755 87.178 Q 145.943 84.034 144.303 83.077 L 144.303 83.077 L 144.303 83.077 Q 142.594 81.983 139.894 81.983 L 139.894 81.983 L 139.894 81.983 Q 136.578 81.983 134.391 83.863 L 134.391 83.863 L 134.391 83.863 Q 132.203 85.709 132.203 88.512 L 132.203 88.512 L 132.203 88.512 Q 132.203 92.374 137.945 94.732 L 137.945 94.732 L 143.209 96.886 L 143.209 96.886 Q 149.635 99.483 152.609 103.226 L 152.609 103.226 L 152.609 103.226 Q 155.582 106.969 155.582 112.403 L 155.582 112.403 L 155.582 112.403 Q 155.582 119.683 150.729 124.434 L 150.729 124.434 L 150.729 124.434 Q 145.841 129.22 138.595 129.22 L 138.595 129.22 L 138.595 129.22 Q 131.725 129.22 127.247 125.152 L 127.247 125.152 L 127.247 125.152 Q 122.838 121.085 121.744 113.702 L 121.744 113.702 L 129.811 111.925 L 129.811 111.925 Q 130.358 116.573 131.725 118.35 L 131.725 118.35 L 131.725 118.35 Q 134.186 121.768 138.902 121.768 L 138.902 121.768 L 138.902 121.768 Q 142.628 121.768 145.089 119.273 L 145.089 119.273 L 145.089 119.273 Q 147.55 116.778 147.55 112.95 L 147.55 112.95 L 147.55 112.95 Q 147.55 111.412 147.123 110.13 L 147.123 110.13 L 147.123 110.13 Q 146.695 108.848 145.79 107.772 L 145.79 107.772 L 145.79 107.772 Q 144.884 106.695 143.448 105.755 L 143.448 105.755 L 143.448 105.755 Q 142.013 104.815 140.03 103.961 L 140.03 103.961 L 134.938 101.842 L 134.938 101.842 Q 124.103 97.262 124.103 88.443 L 124.103 88.443 L 124.103 88.443 Q 124.103 82.496 128.649 78.497 L 128.649 78.497 L 128.649 78.497 Q 133.194 74.464 139.962 74.464 L 139.962 74.464 L 139.962 74.464 Q 149.088 74.464 154.215 83.35 L 154.215 83.35 L 154.215 83.35 Z  M 173.253 113.531 L 185.421 113.531 L 185.421 95.86 L 173.253 113.531 L 173.253 113.531 L 173.253 113.531 L 173.253 113.531 Z  M 214.781 128.262 L 206.544 128.262 L 217.652 71.524 L 235.768 112.54 L 254.532 71.524 L 264.513 128.262 L 256.344 128.262 L 251.251 96.407 L 235.631 130.689 L 220.455 96.373 L 214.781 128.262 L 214.781 128.262 L 214.781 128.262 L 214.781 128.262 Z  M 193.385 71.558 L 193.385 113.531 L 198.99 113.531 L 198.99 120.777 L 193.385 120.777 L 193.385 128.262 L 185.421 128.262 L 185.421 120.777 L 159.513 120.777 L 193.385 71.558 L 193.385 71.558 L 193.385 71.558 L 193.385 71.558 Z  M 409.375 134.424 L 409.375 461.908 L 90.625 461.908 L 90.625 38.092 L 312.593 38.092 L 409.375 134.424 L 409.375 134.424 L 409.375 134.424 L 409.375 134.424 L 409.375 134.424 L 409.375 134.424 L 409.375 134.424 Z  M 182.536 227.276 C 182.427 227.309 182.318 227.339 182.206 227.35 C 182.006 227.41 181.799 227.446 181.591 227.473 C 181.409 227.49 181.225 227.5 181.04 227.5 L 180.994 227.5 L 128 227.5 C 126.67 227.5 125.4 226.97 124.46 226.04 C 123.53 225.1 123 223.83 123 222.5 C 123 221.17 123.53 219.9 124.46 218.96 C 125.4 218.03 126.67 217.5 128 217.5 L 177.601 217.5 L 178.43 215.34 L 180.7 210.02 L 182.71 205.02 L 184.75 199.93 L 186.85 194.95 L 189.15 190.3 L 191.17 185.97 L 193.28 181.72 L 195.51 177.76 L 197.91 174.43 L 200.04 171.39 L 202.38 168.62 L 205.09 166.02 L 207.77 164.11 L 210.67 162.74 L 213.78 162 L 217.2 162 L 220.31 162.74 L 223.21 164.11 L 225.89 166.02 L 228.6 168.62 L 230.94 171.39 L 233.07 174.43 L 235.47 177.76 L 237.7 181.72 L 239.81 185.97 L 241.84 190.3 L 244.13 194.95 L 246.23 199.93 L 248.28 205.02 L 250.28 210.02 L 252.55 215.34 L 254.61 220.71 L 256.6 225.91 L 258.84 231.16 L 260.88 236.25 L 262.9 241.26 L 264.85 245.89 L 267.06 250.37 L 269.08 254.69 L 271.02 258.6 L 272.85 261.85 L 274.95 264.77 L 276.87 267.5 L 278.59 269.53 L 280.38 271.26 L 281.75 272.23 L 282.9 272.78 L 283.85 273 L 284.93 273 L 285.88 272.78 L 287.03 272.23 L 288.4 271.26 L 290.19 269.53 L 291.91 267.5 L 293.83 264.77 L 295.93 261.85 L 297.76 258.6 L 299.7 254.69 L 301.72 250.37 L 303.93 245.89 L 305.88 241.26 L 307.89 236.25 L 309.94 231.16 L 312.18 225.91 L 314.17 220.71 C 314.64 219.47 315.59 218.47 316.8 217.93 C 317.319 217.698 317.869 217.561 318.426 217.524 C 318.603 217.51 318.781 217.5 318.96 217.5 L 372 217.5 C 373.33 217.5 374.6 218.03 375.54 218.96 C 376.47 219.9 377 221.17 377 222.5 C 377 223.83 376.47 225.1 375.54 226.04 C 374.6 226.97 373.33 227.5 372 227.5 L 322.279 227.5 L 321.45 229.66 L 319.18 234.98 L 317.17 239.98 L 315.13 245.07 L 313.03 250.05 L 310.74 254.7 L 308.71 259.03 L 306.6 263.28 L 304.37 267.24 L 301.97 270.57 L 299.84 273.61 L 297.5 276.38 L 294.79 278.98 L 292.11 280.89 L 289.21 282.26 L 286.1 283 L 282.68 283 L 279.57 282.26 L 276.67 280.89 L 273.99 278.98 L 271.28 276.38 L 268.94 273.61 L 266.81 270.57 L 264.41 267.24 L 262.18 263.28 L 260.07 259.03 L 258.04 254.7 L 255.75 250.05 L 253.65 245.07 L 251.61 239.98 L 249.6 234.98 L 247.33 229.66 L 245.27 224.29 L 243.28 219.09 L 241.04 213.84 L 239 208.75 L 236.99 203.74 L 235.03 199.11 L 232.83 194.63 L 230.8 190.31 L 228.86 186.4 L 227.03 183.15 L 224.93 180.23 L 223.01 177.5 L 221.3 175.47 L 219.5 173.74 L 218.13 172.77 L 216.98 172.22 L 216.03 172 L 214.95 172 L 214.01 172.22 L 212.85 172.77 L 211.48 173.74 L 209.69 175.47 L 207.97 177.5 L 206.06 180.23 L 203.95 183.15 L 202.13 186.4 L 200.18 190.31 L 198.16 194.63 L 195.95 199.11 L 194 203.74 L 191.99 208.75 L 189.94 213.84 L 187.7 219.09 L 185.761 224.157 L 185.71 224.29 C 185.24 225.53 184.29 226.53 183.08 227.07 C 182.902 227.149 182.72 227.218 182.536 227.276 Z " fill-rule="evenodd" fill="rgb(255,255,255)" vector-effect="non-scaling-stroke" stroke-width="3" stroke="rgb(150,150,150)" stroke-linejoin="miter" stroke-linecap="butt" stroke-miterlimit="4"/></g></g></g></svg>